# xmcd
#
# Track frame offsets:
#	150
#	36739
#	59970
#	66341
#	107068
#	116725
#	127784
#	138440
#	149209
#	173874
#	186554
#
# Disc length: 2880 seconds
#
# Revision: 2
# Processed by: cddbd v1.5.1PL0 Copyright (c) Steve Scherf et al.
# Submitted via: MusicWizard 7.2.0
#
DISCID=be0b3e0b
DTITLE=Various Artist - Pow Wow Songs
DYEAR=1900
DGENRE=Ethno
TTITLE0=Various Artist - Slow War Dance Songs
TTITLE1=Various Artist - Contest Songs For Straight Dancers
TTITLE2=Various Artist - Contest Songs For Fancy Dancers
TTITLE3=Various Artist - Round Dance
TTITLE4=Various Artist - Sioux Flag Song
TTITLE5=Various Artist - Grass Dance Theme Song
TTITLE6=Various Artist - Grass Dance Song
TTITLE7=Various Artist - Grass Dance Song
TTITLE8=Various Artist - War Dance Song
TTITLE9=Various Artist - Slow War Dance, Vietnam Song
TTITLE10=Various Artist - War Dance Songs (Flag Parade)
EXTD=
EXTT0=
EXTT1=
EXTT2=
EXTT3=
EXTT4=
EXTT5=
EXTT6=
EXTT7=
EXTT8=
EXTT9=
EXTT10=
PLAYORDER=
